<svg xmlns="http://www.w3.org/2000/svg" width="81.466" height="81.205" viewBox="0 0 81.466 81.205"><defs><style>.a{fill:#3e3e3e;stroke:rgba(0,0,0,0);}</style></defs><g transform="translate(0.516 0.5)"><path class="a" d="M147.093,151.119h-7.4l3.886-7.54h7.4Zm-33.03-52.7,3.821-7.491,24.93,52.207-3.832,7.437Zm5.126,28.09,2.263,4.726H97.324l2.411-4.726Zm-1.414,12.7H92.541a.43.43,0,0,0-.389.241L86.2,151.119H78.543l35.149-68.957,3.709,7.766-.148.3-4.072,7.981a.024.024,0,0,0-.015.019L99.078,125.865l-.005.006-2.578,5.073-.277.531a.43.43,0,0,0-.048.218l0,.016a.489.489,0,0,0,.06.2.436.436,0,0,0,.264.192.5.5,0,0,0,.115.018h24.814Zm-8.334-65.975,3.776,7.921-35.51,69.66-5.048-5.134Zm41.549,69.457h-7.41l-.092-.2L110.154,72.68h7.317Zm1.127.542a.179.179,0,0,0,.011-.074v-.022l.005-.005a.314.314,0,0,0-.014-.088l0-.018a.266.266,0,0,0-.026-.074v-.006l-33.935-70.9a.43.43,0,0,0-.4-.251h-8.3a.29.29,0,0,0-.108.018l-.022,0a.41.41,0,0,1-.055.016c-.011.005-.011.014-.021.023l-.032.012a.074.074,0,0,0-.021.012.328.328,0,0,0-.049.048l-.006.005-.008,0a.374.374,0,0,0-.055.073s0,.011-.008.012v.014L71.73,145.567a.454.454,0,0,0,.074.509l5.705,5.794c.007.01.01.01.022.015a.091.091,0,0,0,.03.025c.018.012.029.023.042.033l.015.014h.011a.178.178,0,0,0,.075.023l.014.011a.407.407,0,0,0,.107.014h8.656a.448.448,0,0,0,.386-.24l5.946-11.674h25.238a.429.429,0,0,0,.385-.238l4.1-7.967,0-.021a.112.112,0,0,0,.029-.06l.012-.021a.854.854,0,0,0,.01-.108.473.473,0,0,0-.01-.1c0-.016,0-.026-.012-.033a.516.516,0,0,0-.019-.056.024.024,0,0,1-.01-.018l-2.674-5.6a.444.444,0,0,0-.394-.249H100.188l13.369-26.22,25.012,52.337a.488.488,0,0,0,.19.211.546.546,0,0,0,.207.048h8.4a.437.437,0,0,0,.389-.238l4.333-8.429,0-.008a.24.24,0,0,0,.02-.067.045.045,0,0,0,.008-.026" transform="translate(-71.683 -71.8)"/></g></svg>